<svg width="24" height="24" viewBox="0 0 24 24" fill="none" xmlns="http://www.w3.org/2000/svg">
<path d="M3 20C3 21.105 3.895 22 5 22L19 22C20.105 22 21 21.105 21 20C21 18.895 20.105 18 19 18L5 18C3.895 18 3 18.895 3 20Z" fill="#5B6975" stroke="#5B6975" stroke-width="1.5" stroke-linecap="round" stroke-linejoin="round"/>
<path d="M2.99999 12C2.99999 13.105 3.89499 14 4.99999 14L13.316 14C14.421 14 15.316 13.105 15.316 12C15.316 10.895 14.421 10 13.316 10L4.99999 10C3.89499 10 2.99999 10.895 2.99999 12Z" fill="#5B6975" stroke="#5B6975" stroke-width="1.5" stroke-linecap="round" stroke-linejoin="round"/>
<path d="M3 4C3 5.105 3.895 6 5 6L7.632 6C8.737 6 9.632 5.105 9.632 4C9.632 2.895 8.737 2 7.632 2L5 2C3.895 2 3 2.895 3 4Z" fill="#5B6975" stroke="#5B6975" stroke-width="1.5" stroke-linecap="round" stroke-linejoin="round"/>
</svg>
